<?xml version="1.0" encoding="utf-8"?>
<!-- Generator: Adobe Illustrator 22.0.1, SVG Export Plug-In . SVG Version: 6.00 Build 0)  -->
<!DOCTYPE svg PUBLIC "-//W3C//DTD SVG 1.1//EN" "http://www.w3.org/Graphics/SVG/1.1/DTD/svg11.dtd">
<svg version="1.1" xmlns="http://www.w3.org/2000/svg" xmlns:xlink="http://www.w3.org/1999/xlink" x="0px" y="0px"
	 viewBox="0 0 1000 200" style="enable-background:new 0 0 1000 200;" xml:space="preserve">
<style type="text/css">
	.st0{display:none;}
	.st1{display:inline;}
	.st2{fill:none;stroke:#7F7F7F;stroke-miterlimit:10;}
	.st3{fill:none;stroke:#000000;stroke-miterlimit:10;}
	.st4{fill:none;stroke:#A3A3A3;stroke-miterlimit:10;}
</style>
<g id="Layer_1" class="st0">
	<g class="st1">
		<line class="st2" x1="1165" y1="1055" x2="1165" y2="-826.8"/>
	</g>
	<g class="st1">
		<line class="st3" x1="1147" y1="1100.5" x2="1147" y2="-900"/>
	</g>
	<g class="st1">
		<line class="st3" x1="-149" y1="1100.5" x2="-149" y2="-900"/>
	</g>
	<g class="st1">
		<line class="st3" x1="931" y1="1100.5" x2="931" y2="-900"/>
	</g>
	<g class="st1">
		<line class="st3" x1="499" y1="1100.5" x2="499" y2="-900"/>
	</g>
	<g class="st1">
		<line class="st3" x1="715" y1="1100.5" x2="715" y2="-900"/>
	</g>
	<g class="st1">
		<line class="st3" x1="283" y1="1100.5" x2="283" y2="-900"/>
	</g>
	<g class="st1">
		<line class="st3" x1="67" y1="1100.5" x2="67" y2="-900"/>
	</g>
	<g class="st1">
		<line class="st2" x1="949" y1="1055" x2="949" y2="-826.8"/>
	</g>
	<g class="st1">
		<line class="st2" x1="517" y1="1055" x2="517" y2="-826.8"/>
	</g>
	<g class="st1">
		<line class="st2" x1="733" y1="1055" x2="733" y2="-826.8"/>
	</g>
	<g class="st1">
		<line class="st2" x1="301" y1="1055" x2="301" y2="-826.8"/>
	</g>
	<g class="st1">
		<line class="st2" x1="85" y1="1055" x2="85" y2="-826.8"/>
	</g>
	<g class="st1">
		<line class="st2" x1="-131" y1="1055" x2="-131" y2="-826.8"/>
	</g>
	<g class="st1">
		<line class="st2" x1="913" y1="1055" x2="913" y2="-826.8"/>
	</g>
	<g class="st1">
		<line class="st2" x1="481" y1="1055" x2="481" y2="-826.8"/>
	</g>
	<g class="st1">
		<line class="st2" x1="697" y1="1055" x2="697" y2="-826.8"/>
	</g>
	<g class="st1">
		<line class="st2" x1="265" y1="1055" x2="265" y2="-826.8"/>
	</g>
	<g class="st1">
		<line class="st2" x1="49" y1="1055" x2="49" y2="-826.8"/>
	</g>
	<g class="st1">
		<line class="st2" x1="1129" y1="1055" x2="1129" y2="-826.8"/>
	</g>
	<g class="st1">
		<line class="st2" x1="-167" y1="1055" x2="-167" y2="-826.8"/>
	</g>
</g>
<g id="Layer_2">
	<g>
		<line class="st3" x1="780" y1="0" x2="780" y2="200"/>
		<line class="st3" x1="640" y1="0" x2="640" y2="200"/>
		<line class="st3" x1="500" y1="0" x2="500" y2="200"/>
		<line class="st3" x1="360" y1="0" x2="360" y2="200"/>
		<line class="st3" x1="220" y1="0" x2="220" y2="200"/>
		<line class="st3" x1="80" y1="0" x2="80" y2="200"/>
		<line class="st3" x1="920" y1="0" x2="920" y2="200"/>
	</g>
	<g>
		<line class="st4" x1="770" y1="0" x2="770" y2="200"/>
		<line class="st4" x1="630" y1="0" x2="630" y2="200"/>
		<line class="st4" x1="490" y1="0" x2="490" y2="200"/>
		<line class="st4" x1="350" y1="0" x2="350" y2="200"/>
		<line class="st4" x1="210" y1="0" x2="210" y2="200"/>
		<line class="st4" x1="70" y1="0" x2="70" y2="200"/>
		<line class="st4" x1="910" y1="0" x2="910" y2="200"/>
	</g>
	<g>
		<line class="st4" x1="790" y1="0" x2="790" y2="200"/>
		<line class="st4" x1="650" y1="0" x2="650" y2="200"/>
		<line class="st4" x1="510" y1="0" x2="510" y2="200"/>
		<line class="st4" x1="370" y1="0" x2="370" y2="200"/>
		<line class="st4" x1="230" y1="0" x2="230" y2="200"/>
		<line class="st4" x1="90" y1="0" x2="90" y2="200"/>
		<line class="st4" x1="930" y1="0" x2="930" y2="200"/>
	</g>
</g>
</svg>
