<?xml version="1.0" encoding="utf-8"?>
<!-- Generator: Adobe Illustrator 22.0.1, SVG Export Plug-In . SVG Version: 6.00 Build 0)  -->
<!DOCTYPE svg PUBLIC "-//W3C//DTD SVG 1.1//EN" "http://www.w3.org/Graphics/SVG/1.1/DTD/svg11.dtd">
<svg version="1.1" id="Layer_1" xmlns="http://www.w3.org/2000/svg" xmlns:xlink="http://www.w3.org/1999/xlink" x="0px" y="0px"
	 viewBox="0 0 32 32" style="enable-background:new 0 0 32 32;" xml:space="preserve">
<style type="text/css">
	.st0{fill:#FFFFFF;}
</style>
<path class="st0" d="M27.9879,3.7858C26.0592,1.6429,23.4878,1,20.702,1s-5.3572,1.0714-7.2859,3
	c-1.9285,1.9286-2.9999,4.4999-2.9999,7.2857c0,2.1429,0.6428,4.0713,1.7142,5.7857c-0.4286,0.2142-1.0715,0.4286-1.2857,0.6428
	l-9.0002,9c-1.0712,1.0713-1.0712,2.5713-0.2139,3.6429C2.0591,30.7858,2.7021,31,3.3448,31s1.2857-0.2142,1.7142-0.6428l9.0002-9
	c0.4285-0.4286,0.4285-0.8572,0.6428-1.2858c1.7143,1.0714,3.6427,1.7142,5.7856,1.7142c2.7858,0,5.3573-1.0714,7.2859-2.9999
	c2.1428-1.9286,3.2142-4.5,3.2142-7.5C30.9878,8.2857,29.9163,5.9286,27.9879,3.7858z M26.0595,16.6429
	C24.5594,18.1429,22.8451,19,20.7022,19c-1.9287,0.2143-3.8573-0.6428-5.3573-2.1429c-1.4999-1.4999-2.357-3.4286-2.357-5.5713
	c0-2.1427,0.8571-3.8571,2.357-5.3571c1.5001-1.5,3.2144-2.3571,5.3573-2.3571s3.8573,0.8571,5.3573,2.3571
	c1.4999,1.5,2.357,3.4286,2.357,5.3571S27.5595,15.1429,26.0595,16.6429z"/>
</svg>
